<svg id="fc2f056a-f2b1-4dd9-91f4-f36b8dc4c674" data-name="Layer 1" xmlns="http://www.w3.org/2000/svg" width="800.25287" height="695.42298" viewBox="0 0 800.25287 695.42298"><path d="M966.8999,290.16852c-.42969.63-.86963,1.25-1.31006,1.87l-1.00976-2.03-.16016-.32995-1-2-25.46-51.31-.00976-.01-43.16016-86.94v-.01l-.99024-1.99v-.01l-21.35986-43.03-1.00976-2.04q1.13964.03,2.27978.09l1.02,2.05,21.30029,42.93.00977.01.99023,1.99v.01l42.05957,84.73v.01l.99024,1.99v.01l25.46,51.27.33984.69Z" transform="translate(-199.87357 -102.28851)" fill="#3f3d56"/><path d="M963.27,149.41852H772.73c.51025-.67,1.02979-1.34,1.56982-2H961.7002C962.24023,148.07849,962.75977,148.74853,963.27,149.41852Z" transform="translate(-199.87357 -102.28851)" fill="#3f3d56"/><path d="M987.41016,234.15851c-.06006.67-.12989,1.34-.22022,2H938.37988v-2Z" transform="translate(-199.87357 -102.28851)" fill="#3f3d56"/><path d="M779.98,140.82849v162.92c-.68994-.73-1.3501-1.47-2-2.21v-158.5C778.62988,142.29852,779.29,141.55853,779.98,140.82849Z" transform="translate(-199.87357 -102.28851)" fill="#3f3d56"/><rect x="579.10675" y="185.38884" width="186.06213" height="2" fill="#3f3d56"/><path d="M895.46456,195.56018c0,17.04569-25.068,65.11393-34.48307,82.56633a3.99424,3.99424,0,0,1-7.03387,0c-9.41506-17.4524-34.48306-65.52064-34.48306-82.56633a38,38,0,0,1,76,0Z" transform="translate(-199.87357 -102.28851)" fill="#6573f1"/><circle cx="657.59099" cy="93.27166" r="17" fill="#fff"/><circle cx="657.59099" cy="187.27166" r="7" fill="#6573f1"/><path d="M421.21,786.45849c.29981.14.60986.28.91992.4-.27978-.09-.56006-.18-.83008-.27q-5.93994-1.965-11.79-4.17-9.40431-3.525-18.55957-7.65-6.54054-2.93994-12.96-6.17a326.29923,326.29923,0,0,1-98.82031-76.48q-3.78-4.32-7.41015-8.79-3.08936-3.795-6.04981-7.69995a318.53453,318.53453,0,0,1-29.7998-47.33,325.62717,325.62717,0,0,1-36-152.9c.27978-18,2.16992-36.37,9.73-52.7,6.25-13.49,16.90966-25.46,30.33007-31.4,1.11963-.5,2.25977-.96,3.41993-1.36a43.641,43.641,0,0,1,5.4497-1.57c19.18018-4.22,39.43018,4.41,53.72022,17.88,14.2998,13.47,23.66992,31.24,32.2998,48.89,27.4502,56.18005,51.42041,114.53,70.1001,174.4.21.68.41992,1.35.62988,2.02a90.59241,90.59241,0,0,0-18.65332,18.10486l-9.78418,15.84888a89.2875,89.2875,0,0,0-5.0122,12.77624q-.85548,2.76-1.51026,5.6a90.0213,90.0213,0,0,0,50.58008,102.57Z" transform="translate(-199.87357 -102.28851)" fill="#f2f2f2"/><path d="M441.14014,792.45849l-.07032.35-.02.08c0-.03-.00976-.05-.00976-.08-.02-.13-.03027-.26-.04981-.39C441.04,792.42853,441.08984,792.44849,441.14014,792.45849Z" transform="translate(-199.87357 -102.28851)" fill="#f2f2f2"/><path d="M370.87012,675.68854c.41992.87.83984,1.74,1.27,2.6q-.85548,2.76-1.51026,5.6c-.4497-.93-.90967-1.87-1.35986-2.8q-10.97973-22.515-21.35986-45.3c-11.91993-26.03-23.43018-52.24-34.96-78.43q-18.21021-41.37-36.41016-82.72-18.19482-41.36994-36.3999-82.72a2.3699,2.3699,0,0,1-.16993-.62c-.21044-1.92,2.50977-3.31,3.41993-1.36a.21716.21716,0,0,1,.02978.05q2.28,5.145,4.54,10.3,18.19482,41.355,36.3999,82.72,18.13551,41.205,36.28028,82.42005c11.48974,26.1,23.00976,52.19,34.98974,78.06Q363.11524,659.65848,370.87012,675.68854Z" transform="translate(-199.87357 -102.28851)" fill="#fff"/><path d="M432.5,795.30853c-.66992-1.05005-1.33984-2.09-2-3.14-.56982-.89-1.12988-1.78-1.68994-2.67-.14014-.22-.27979-.43-.3999-.65q2.75976.855,5.54,1.64c.1499.25.30957.51.48.76.4497.71.8999,1.43,1.35986,2.14.06982.12.12988.23.18017.34C436.75977,795.65851,433.75,797.24853,432.5,795.30853Z" transform="translate(-199.87357 -102.28851)" fill="#fff"/><path d="M423.43994,789.59851c.81983,1.15,1.62988,2.3,2.43018,3.46-1.39014.31-2.77.61-4.16992.9-1.11036.22-2.22022.44-3.33008.64a188.70924,188.70924,0,0,1-203.26026-101.05c-4.71-9.42-8.68994-19.47-9.16992-29.99-.3999-8.69,1.91016-17.79,7.27-24.5.43994-.56.91016-1.1,1.3999-1.63a27.3761,27.3761,0,0,1,2.41016-2.28,31.42947,31.42947,0,0,1,18.89014-6.85,43.57,43.57,0,0,1,13.83007,1.63c11.05957,3.14,20.71973,9.82995,29.96973,16.67a718.96353,718.96353,0,0,1,88.51025,76.74c.89991.93,1.81006,1.88,2.69971,2.82a90.58143,90.58143,0,0,0,50.29,60.3.496.496,0,0,1,.08984.13C422.03027,787.5885,422.74023,788.5885,423.43994,789.59851Z" transform="translate(-199.87357 -102.28851)" fill="#f2f2f2"/><path d="M426.02,793.2785c-.04981-.07-.1001-.15-.1499-.22.02978-.01.0498-.01.08008-.02Z" transform="translate(-199.87357 -102.28851)" fill="#f2f2f2"/><path d="M213.45989,639.34157l41.23342,33.11837,41.23342,33.11836c13.05871,10.48867,26.1091,20.98924,39.32225,31.28338,13.09711,10.20373,26.35621,20.20558,39.92738,29.77224,13.55193,9.55309,27.4174,18.67222,41.70123,27.09648q2.66816,1.57362,5.35551,3.11424c1.2403.71165,2.43766-1.16931,1.18857-1.886-14.3852-8.25384-28.34885-17.22217-41.98117-26.66387-13.647-9.45188-26.96565-19.36971-40.102-29.51682-13.20656-10.20133-26.23051-20.6359-39.24155-31.08455q-20.54317-16.49743-41.08377-32.99807L219.77973,641.577l-5.13127-4.1214c-1.11587-.89626-2.29759.99524-1.18857,1.886Z" transform="translate(-199.87357 -102.28851)" fill="#fff"/><path d="M778.79,786.45849c-.29981.14-.60986.28-.91992.4.27978-.09.56006-.18.83008-.27q5.93994-1.965,11.79-4.17,9.40431-3.525,18.55957-7.65,6.54054-2.93994,12.96-6.17a326.29923,326.29923,0,0,0,98.82031-76.48q3.78-4.32,7.41015-8.79,3.08935-3.795,6.04981-7.69995a318.53453,318.53453,0,0,0,29.7998-47.33,325.62717,325.62717,0,0,0,36-152.9c-.27978-18-2.16992-36.37-9.73-52.7-6.25-13.49-16.90966-25.46-30.33007-31.4-1.11963-.5-2.25977-.96-3.41993-1.36a43.641,43.641,0,0,0-5.4497-1.57c-19.18018-4.22-39.43018,4.41-53.72022,17.88-14.2998,13.47-23.66992,31.24-32.2998,48.89-27.4502,56.18005-51.42041,114.53-70.1001,174.4-.21.68-.41992,1.35-.62988,2.02a90.59241,90.59241,0,0,1,18.65332,18.10486l9.78418,15.84888a89.2875,89.2875,0,0,1,5.0122,12.77624q.85548,2.76,1.51026,5.6a90.0213,90.0213,0,0,1-50.58008,102.57Z" transform="translate(-199.87357 -102.28851)" fill="#f2f2f2"/><path d="M758.85986,792.45849l.07032.35.02.08c0-.03.00976-.05.00976-.08.02-.13.03027-.26.04981-.39C758.96,792.42853,758.91016,792.44849,758.85986,792.45849Z" transform="translate(-199.87357 -102.28851)" fill="#f2f2f2"/><path d="M829.12988,675.68854c-.41992.87-.83984,1.74-1.27,2.6q.85548,2.76,1.51026,5.6c.4497-.93.90967-1.87,1.35986-2.8q10.97973-22.515,21.35986-45.3c11.91993-26.03,23.43018-52.24,34.96-78.43q18.21021-41.37,36.41016-82.72,18.19482-41.36994,36.3999-82.72a2.3699,2.3699,0,0,0,.16993-.62c.21044-1.92-2.50977-3.31-3.41993-1.36a.21716.21716,0,0,0-.02978.05q-2.28,5.145-4.54,10.3-18.19482,41.355-36.3999,82.72-18.13551,41.205-36.28028,82.42005c-11.48974,26.1-23.00976,52.19-34.98974,78.06Q836.88476,659.65848,829.12988,675.68854Z" transform="translate(-199.87357 -102.28851)" fill="#fff"/><path d="M767.5,795.30853c.66992-1.05005,1.33984-2.09,2-3.14.56982-.89,1.12988-1.78,1.68994-2.67.14014-.22.27979-.43.3999-.65q-2.75976.855-5.54,1.64c-.1499.25-.30957.51-.48.76-.4497.71-.8999,1.43-1.35986,2.14-.06982.12-.12988.23-.18017.34C763.24023,795.65851,766.25,797.24853,767.5,795.30853Z" transform="translate(-199.87357 -102.28851)" fill="#fff"/><path d="M776.56006,789.59851c-.81983,1.15-1.62988,2.3-2.43018,3.46,1.39014.31,2.77.61,4.16992.9,1.11036.22,2.22022.44,3.33008.64a188.70924,188.70924,0,0,0,203.26026-101.05c4.71-9.42,8.68994-19.47,9.16992-29.99.3999-8.69-1.91016-17.79-7.27-24.5-.43994-.56-.91016-1.1-1.3999-1.63a27.3761,27.3761,0,0,0-2.41016-2.28,31.42947,31.42947,0,0,0-18.89014-6.85,43.57,43.57,0,0,0-13.83007,1.63c-11.05957,3.14-20.71973,9.82995-29.96973,16.67a718.96353,718.96353,0,0,0-88.51025,76.74c-.89991.93-1.81006,1.88-2.69971,2.82a90.58143,90.58143,0,0,1-50.29,60.3.496.496,0,0,0-.08984.13C777.96973,787.5885,777.25977,788.5885,776.56006,789.59851Z" transform="translate(-199.87357 -102.28851)" fill="#f2f2f2"/><path d="M773.98,793.2785c.04981-.07.1001-.15.1499-.22-.02978-.01-.0498-.01-.08008-.02Z" transform="translate(-199.87357 -102.28851)" fill="#f2f2f2"/><path d="M986.54011,639.34157l-41.23342,33.11837L904.07327,705.5783c-13.05871,10.48867-26.1091,20.98924-39.32225,31.28338-13.09711,10.20373-26.35621,20.20558-39.92738,29.77224-13.55193,9.55309-27.4174,18.67222-41.70123,27.09648q-2.66815,1.57362-5.35551,3.11424c-1.2403.71165-2.43766-1.16931-1.18857-1.886,14.3852-8.25384,28.34885-17.22217,41.98117-26.66387,13.647-9.45188,26.96565-19.36971,40.102-29.51682,13.20656-10.20133,26.23051-20.6359,39.24155-31.08455q20.54317-16.49743,41.08377-32.99807L980.22027,641.577l5.13127-4.1214c1.11587-.89626,2.29759.99524,1.18857,1.886Z" transform="translate(-199.87357 -102.28851)" fill="#fff"/><path d="M568.8689,459.7749a6.45058,6.45058,0,0,0-3.7374,3.291l-5.13578,10.44549-1.375,2.79294a6.51047,6.51047,0,0,0,2.95616,8.7053l39.80212,19.5816,70.58378,34.71145a6.51092,6.51092,0,0,0,8.47888-2.54238c.083-.13843.15264-.27155.22647-.414l3.93267-7.99245,2.58215-5.25488a6.46954,6.46954,0,0,0,.483-1.317,6.53493,6.53493,0,0,0-.16143-3.64573,6.44981,6.44981,0,0,0-3.29106-3.73724L675.799,510.258l-62.24757-30.61622-39.71977-19.54524A6.49811,6.49811,0,0,0,568.8689,459.7749Z" transform="translate(-199.87357 -102.28851)" fill="#6573f1"/><path d="M556.5543,463.65194a18.088,18.088,0,0,0-1.88345,3.30079,18.52233,18.52233,0,0,0,9.45315,24.39545l31.10412,13.73076a6.52767,6.52767,0,0,0,6.15084-.48772,6.40643,6.40643,0,0,0,1.85553-1.82611,6.22865,6.22865,0,0,0,.565-1.00755l9.69231-21.95584a.9202.9202,0,0,0,.05966-.15994,6.49574,6.49574,0,0,0-3.381-8.41144L579.0663,457.49958A18.5292,18.5292,0,0,0,556.5543,463.65194Z" transform="translate(-199.87357 -102.28851)" fill="#2f2e41"/><path d="M641.81982,563.5285H627.06006a6.50619,6.50619,0,0,0-6.5,6.5v92.01a6.50615,6.50615,0,0,0,6.5,6.5h14.75976a6.49957,6.49957,0,0,0,6.5-6.5v-92.01A6.49962,6.49962,0,0,0,641.81982,563.5285Z" transform="translate(-199.87357 -102.28851)" fill="#6573f1"/><path d="M632.71411,596.90082a8.61028,8.61028,0,0,1-3.1438-.59424l-82.21972-32.16651a8.92172,8.92172,0,0,1-4.92945-11.59716l7.0354-17.98243a9.04167,9.04167,0,0,1,4.719-4.98632,8.65969,8.65969,0,0,1,6.771-.187l82.21973,32.167a8.66753,8.66753,0,0,1,4.84692,4.73193,9.04154,9.04154,0,0,1,.08252,6.86475l-7.03515,17.98242A9.01511,9.01511,0,0,1,632.71411,596.90082Z" transform="translate(-199.87357 -102.28851)" fill="#ccc"/><path d="M642.252,674.28851h-16a5.5,5.5,0,0,1,0-11h16a5.5,5.5,0,0,1,0,11Z" transform="translate(-199.87357 -102.28851)" fill="#2f2e41"/><path d="M516.36694,574.603a26.659,26.659,0,0,1-5.97949-.63184c-8.87671-2.04883-12.15478-5.94483-12.69214-7.92383a1.75854,1.75854,0,0,1,.32544-1.81006,1.53215,1.53215,0,0,1,1.63745-.22754c2.75733.92041,41.84693-6.80957,55.72925-10.01318,5.77319-1.33154,9.825-1.1123,12.04346.65234A3.88405,3.88405,0,0,1,569,557.48382v.34815L541.699,567.9433C540.81494,568.38275,528.09326,574.603,516.36694,574.603Z" transform="translate(-199.87357 -102.28851)" fill="#2f2e41"/><path d="M730.17871,695.09808a1.00021,1.00021,0,0,1-.916-.59814L677.75586,577.34369a2.98513,2.98513,0,0,0-2.80737-1.79151l-140.93238,2.87647a2.986,2.986,0,0,0-2.49829,1.43457l-67.6372,110.603a.9998.9998,0,1,1-1.70606-1.043l67.63721-110.60352a4.97807,4.97807,0,0,1,4.16333-2.39111l140.93237-2.87647a5.0031,5.0031,0,0,1,4.67944,2.98682l51.50684,117.15625a1.001,1.001,0,0,1-.915,1.40283Z" transform="translate(-199.87357 -102.28851)" fill="#2f2e41"/><path d="M566.99951,699.289a1.00083,1.00083,0,0,1-.96069-.72412L533.43945,585.14349a1.00013,1.00013,0,0,1,1.92237-.55273l32.59936,113.42138a1,1,0,0,1-.68506,1.23731A.98656.98656,0,0,1,566.99951,699.289Z" transform="translate(-199.87357 -102.28851)" fill="#2f2e41"/><path d="M574,567.78851H542a22.52539,22.52539,0,0,1-22.5-22.5v-5a22.52539,22.52539,0,0,1,22.5-22.5h32a22.52539,22.52539,0,0,1,22.5,22.5v5A22.52539,22.52539,0,0,1,574,567.78851Z" transform="translate(-199.87357 -102.28851)" fill="#ccc"/><circle cx="538.37842" cy="602.19554" r="6" fill="#2f2e41"/><circle cx="256.37842" cy="602.19554" r="6" fill="#2f2e41"/><path d="M670.17041,531.31781a3.5003,3.5003,0,0,1-1.17017-6.80029l30.16993-10.666a3.49977,3.49977,0,1,1,2.33349,6.59912l-30.16992,10.66651A3.47742,3.47742,0,0,1,670.17041,531.31781Z" transform="translate(-199.87357 -102.28851)" fill="#2f2e41"/><path d="M591.15356,698.48382a1,1,0,0,1-.71972-1.69433l90.40381-93.7002a1.00006,1.00006,0,1,1,1.43945,1.38868l-90.40381,93.70019A.99656.99656,0,0,1,591.15356,698.48382Z" transform="translate(-199.87357 -102.28851)" fill="#2f2e41"/><path d="M472.47632,710.53168a1,1,0,0,1-.00293-2l83.52368-.24317H556a1,1,0,0,1,.00293,2l-83.52368.24317Z" transform="translate(-199.87357 -102.28851)" fill="#2f2e41"/><path d="M676.19189,567.05121a.99988.99988,0,0,1-.9768-.79053l-4.677-21.84424a.99981.99981,0,0,1,.97778-1.20947h15.866V532.48431a1,1,0,0,1,2,0V544.207a1.00005,1.00005,0,0,1-1,1H672.75269l4.418,20.63476a.99913.99913,0,0,1-.97876,1.20948Z" transform="translate(-199.87357 -102.28851)" fill="#2f2e41"/><path d="M574,736.28851a20,20,0,1,1,20-20A20.02276,20.02276,0,0,1,574,736.28851Zm0-38a18,18,0,1,0,18,18A18.02031,18.02031,0,0,0,574,698.28851Z" transform="translate(-199.87357 -102.28851)" fill="#2f2e41"/><path d="M593.252,721.28851h-16a5.5,5.5,0,0,1,0-11h16a5.5,5.5,0,0,1,0,11Z" transform="translate(-199.87357 -102.28851)" fill="#2f2e41"/><path d="M975.273,797.28235H236.979a1.19068,1.19068,0,1,1,0-2.38137H975.273a1.19068,1.19068,0,1,1,0,2.38137Z" transform="translate(-199.87357 -102.28851)" fill="#3f3d56"/><path d="M582.94753,432.6207a6.45062,6.45062,0,0,0-4.3882,2.35425l-7.37783,9.0029-1.97447,2.40679a6.51047,6.51047,0,0,0,.8978,9.1496l34.30245,28.12454,60.834,49.86158a6.51091,6.51091,0,0,0,8.835-.5464c.11231-.11591.21042-.22969.31473-.35163l5.64812-6.888,3.71011-4.5295a6.46892,6.46892,0,0,0,.77-1.17258,6.53489,6.53489,0,0,0,.67236-3.58683,6.44982,6.44982,0,0,0-2.35436-4.38805l-7.25142-5.94693-53.6483-43.977L587.707,434.06314A6.49809,6.49809,0,0,0,582.94753,432.6207Z" transform="translate(-199.87357 -102.28851)" fill="#6573f1"/><circle cx="361.18922" cy="239.90762" r="53.51916" fill="#6573f1"/><path d="M606.25837,365.85445l-.05567-2c3.7207-.10352,7.001-.33691,9.46582-2.1377a6.148,6.148,0,0,0,2.38135-4.52832,3.51438,3.51438,0,0,0-1.15283-2.89453c-1.63623-1.38183-4.269-.93457-6.188-.05469l-1.65479.75879,3.17334-23.19043,1.98145.27149-2.69922,19.72656c2.60742-.7666,5.02344-.43652,6.67822.96094a5.471,5.471,0,0,1,1.86035,4.49219,8.13263,8.13263,0,0,1-3.20019,6.07324C613.68122,365.64644,609.56549,365.76168,606.25837,365.85445Z" transform="translate(-199.87357 -102.28851)" fill="#2f2e41"/><rect x="390.1348" y="231.49172" width="10.77148" height="2" fill="#2f2e41"/><path d="M620.00524,458.33138l-23.86116-24.2153a18.50088,18.50088,0,0,0-26.36247,25.96442l23.86165,24.21536a6.49645,6.49645,0,0,0,8.17218.88737,5.3871,5.3871,0,0,0,1.02258-.81555l17.09551-16.8414a6.42742,6.42742,0,0,0,1.419-2.07038A6.53488,6.53488,0,0,0,620.00524,458.33138Z" transform="translate(-199.87357 -102.28851)" fill="#2f2e41"/><path d="M592.81982,607.5285H578.06006a6.50619,6.50619,0,0,0-6.5,6.5v92.01a6.50615,6.50615,0,0,0,6.5,6.5h14.75976a6.49957,6.49957,0,0,0,6.5-6.5v-92.01A6.49962,6.49962,0,0,0,592.81982,607.5285Z" transform="translate(-199.87357 -102.28851)" fill="#6573f1"/><path d="M570.57251,639.1806c-4.7251.00049-8.801-2.92431-9.52539-7.13672l-14.96436-87.01025a8.21866,8.21866,0,0,1,1.90259-6.67871,10.926,10.926,0,0,1,6.61109-3.731l21.60668-3.71631c5.51954-.94873,10.67847,2.17676,11.5022,6.9668l14.96436,87.01074a8.22,8.22,0,0,1-1.89673,6.67725,10.92776,10.92776,0,0,1-6.61694,3.73193l-21.60669,3.71631A11.65069,11.65069,0,0,1,570.57251,639.1806Z" transform="translate(-199.87357 -102.28851)" fill="#ccc"/><path d="M592.50977,421.94536a38.7254,38.7254,0,0,0-8.77979-7.41412,44.843,44.843,0,0,0-46.87988.20328,39.09811,39.09811,0,0,0-7.62989,6.30067,33.23916,33.23916,0,0,0-9.30029,22.799v96.26851a4.19953,4.19953,0,0,0,.08008.87483c.47021,2.9957,3.3999,5.31095,6.91992,5.31095h67.07031c3.84961,0,7-2.77478,7-6.18578V443.83422A33.02469,33.02469,0,0,0,592.50977,421.94536Z" transform="translate(-199.87357 -102.28851)" fill="#2f2e41"/><path d="M573.09162,346.46007c-7.09592,2.35753-15.06148-2.488-15.51332-10.11916a11.96847,11.96847,0,0,1,3.72453-9.5686,16.10722,16.10722,0,0,1,8.40477-3.72267c6.73769-1.16914,13.66327-.22068,20.43017-1.22819,6.82581-1.01628,12.84261-4.54185,15.83428-10.95425a24.665,24.665,0,0,0,.17251-20.06976c-3.10462-7.10116-9.19622-12.5088-15.9074-16.14907-12.91575-7.00574-28.41794-8.38542-42.64964-5.27786a66.25486,66.25486,0,0,0-36.66183,21.83265q-1.70158,2.0496-3.2253,4.2389a1.50746,1.50746,0,0,0,1.2952,2.25708l8.77373-1.05574-1.29521-2.25708-9.53569,17.14382c-.58642,1.05429.40817,2.68807,1.694,2.20349l13.98421-5.27018-1.45942-2.50708L507.27763,322.855c-1.216,1.48049.89461,3.61486,2.12132,2.12132l13.87955-16.89864c.84323-1.02665.09086-3.09133-1.45942-2.50708l-13.98421,5.27019,1.694,2.20349,9.53569-17.14381c.49791-.89519-.10854-2.39987-1.29521-2.25708l-8.77373,1.05574,1.29521,2.25708c8.19575-11.73729,20.76744-20.00435,34.4932-23.80194,13.77624-3.81155,29.11386-3.20058,42.07482,3.12468,6.849,3.34245,13.11392,8.36383,16.40391,15.38746a21.29573,21.29573,0,0,1-.707,19.2636c-7.52628,12.84967-25.073,6.24622-36.81488,9.98814-6.69912,2.13488-11.50788,8.02733-11.1731,15.24376a14.68962,14.68962,0,0,0,14.09343,13.90822,14.26218,14.26218,0,0,0,5.228-.71724c1.82332-.60577,1.042-3.504-.79751-2.89283Z" transform="translate(-199.87357 -102.28851)" fill="#2f2e41"/><path d="M964.81006,289.67853h.23v-.33A3.288,3.288,0,0,1,964.81006,289.67853Zm-1.54-140.26c-.51025-.67-1.02979-1.34-1.56982-2a119.78247,119.78247,0,0,0-87.99024-44.99q-1.13964-.06006-2.27978-.09c-1.14014-.03-2.28028-.05-3.43018-.05a119.637,119.637,0,0,0-88.02,38.54c-.68994.73-1.3501,1.47-2,2.21q-1.905,2.145-3.68018,4.38c-.54.66-1.05957,1.33-1.56982,2a119.73089,119.73089,0,0,0,5.25,152.12c.6499.74,1.31006,1.48,2,2.21a119.84017,119.84017,0,0,0,185.60986-11.71c.44043-.62.88037-1.24,1.31006-1.87a119.03872,119.03872,0,0,0,20.29-54.01c.09033-.66.16016-1.33.22022-2q.58446-5.85.58984-11.87A119.31855,119.31855,0,0,0,963.27,149.41852Zm21.91016,86.74a116.94966,116.94966,0,0,1-19.3003,51.96q-.405.615-.83984,1.23a3.288,3.288,0,0,1-.23.33c-.06983.11-.1499.22-.23.32995a117.86166,117.86166,0,0,1-184.6001,10.78c-.68994-.76-1.35986-1.52-2-2.3a117.76208,117.76208,0,0,1-2.73-149.07c.53027-.67,1.06006-1.34,1.60986-2,.36035-.45.73-.89,1.12012-1.33.64014-.78,1.31006-1.54,2-2.3a117.66522,117.66522,0,0,1,88.02-39.5q2.23535,0,4.43994.09c.77.02,1.53027.06,2.29.1a117.849,117.849,0,0,1,84.41016,42.94c.5498.66,1.08007,1.33,1.60986,2a117.39189,117.39189,0,0,1,25.25,72.87q0,6.015-.58984,11.87C985.33984,234.82849,985.27,235.49853,985.18018,236.15851Zm-20.37012,53.52h.23v-.33A3.288,3.288,0,0,1,964.81006,289.67853Z" transform="translate(-199.87357 -102.28851)" fill="#ccc"/><path d="M458,795a91,91,0,1,1,91-91A91.10286,91.10286,0,0,1,458,795Zm0-180a89,89,0,1,0,89,89A89.10056,89.10056,0,0,0,458,615Z" transform="translate(-199.87357 -102.28851)" fill="#2f2e41"/><path d="M740,795a91,91,0,1,1,91-91A91.10286,91.10286,0,0,1,740,795Zm0-180a89,89,0,1,0,89,89A89.10024,89.10024,0,0,0,740,615Z" transform="translate(-199.87357 -102.28851)" fill="#2f2e41"/></svg>