<?xml version="1.0" encoding="iso-8859-1"?>
<!-- Generator: Adobe Illustrator 16.0.0, SVG Export Plug-In . SVG Version: 6.00 Build 0)  -->
<!DOCTYPE svg PUBLIC "-//W3C//DTD SVG 1.1//EN" "http://www.w3.org/Graphics/SVG/1.1/DTD/svg11.dtd">
<svg version="1.1" id="Capa_1" xmlns="http://www.w3.org/2000/svg" xmlns:xlink="http://www.w3.org/1999/xlink" x="0px" y="0px"
	 width="436.717px" height="436.717px" viewBox="0 0 436.717 436.717" style="enable-background:new 0 0 436.717 436.717;"
	 xml:space="preserve">
<g>
	<path d="M427.758,194.331c11.945,11.94,11.945,31.298,0,43.243L239.979,425.359c-5.97,5.958-13.796,8.949-21.622,8.949
		s-15.651-2.979-21.619-8.949L8.959,237.574c-11.946-11.945-11.946-31.303,0-43.243c11.943-11.942,31.306-11.942,43.246,0
		l166.151,166.152l166.152-166.152C396.448,182.395,415.818,182.395,427.758,194.331z M196.738,242.397
		c5.967,5.958,13.793,8.949,21.619,8.949s15.652-2.991,21.622-8.949L427.758,54.618c11.945-11.948,11.945-31.312,0-43.255
		c-11.945-11.939-31.31-11.939-43.249,0L218.357,177.515L52.206,11.363c-11.94-11.939-31.303-11.939-43.246,0
		c-11.946,11.943-11.946,31.307,0,43.255L196.738,242.397z"/>
</g>
<g>
</g>
<g>
</g>
<g>
</g>
<g>
</g>
<g>
</g>
<g>
</g>
<g>
</g>
<g>
</g>
<g>
</g>
<g>
</g>
<g>
</g>
<g>
</g>
<g>
</g>
<g>
</g>
<g>
</g>
</svg>
